<svg version="1" xmlns="http://www.w3.org/2000/svg" width="370.667" height="370.667" viewBox="0 0 278.000000 278.000000"><path d="M88.4 13.7c-5.9.4-6.3.6-8.9 4.3-1.5 2.2-3.2 4-3.6 4-.5 0-2.3 1.5-4 3.2-2.3 2.5-3.8 3.2-6 3-1.6-.2-2.9.1-2.9.7s-.7 1.1-1.5 1.1-2.3.4-3.3.9c-.9.5-3.5 1.4-5.7 2.1-2.2.7-4.2 1.6-4.5 2-.3.5-1.6 1-3 1.1-1.7.3-3.5 1.9-5.6 5.2-1.6 2.6-3.4 4.4-3.8 4-.4-.4-.5.3-.1 1.7.5 2 0 3.1-1.9 4.8-1.5 1.2-2.6 3.1-2.6 4.1 0 1.1-1.4 3.1-3.2 4.4-2.8 2.2-3.1 3.1-3.2 7.8-.1 4.9.1 5.4 3.1 7.1 1.7 1.1 3.4 3.1 3.8 4.6.4 1.5 1.2 3 1.8 3.4.9.6.9 1.2 0 2.8-1.7 2.6-1.6 4.8.1 6.5.7.7 1.6 3.9 2 7.1.6 5.4 3.7 11.4 7 13.6.6.4-.3 1.2-2.1 1.9-1.8.6-3.3 1.5-3.3 1.9 0 .4-2.7 1.3-6.1 1.9-7.1 1.2-16.7 5.3-17.5 7.6-.3.8-1.5 1.5-2.5 1.5-2.9 0-5.6 3.1-6.3 7-.3 2-1.4 4.1-2.5 4.9-1.9 1.2-2.1 2.4-2.1 11.7 0 5.8.4 10.4.9 10.4s1.1-1.2 1.3-2.7c.3-2.5 4-6 8.1-7.7.9-.3.9-.7-.2-1.4-.9-.6-1-1.2-.2-1.6.6-.4 1.8-2.2 2.7-4.1 1.4-3 2-3.4 4.2-2.8 1.7.4 2.3.2 1.8-.6-.4-.6-.1-1.1.9-1.1.9 0 1.8-1.2 2.1-3 .4-1.6 1.5-3.2 2.5-3.5 1.1-.4 1.9-1.1 1.9-1.6 0-.6.5-.7 1-.4.6.4 1.6.2 2.3-.3.7-.5 2.6-1.2 4.2-1.6 1.7-.4 3.8-1.4 4.7-2.3.9-.8 2.2-1.2 2.7-.8.6.3 1.1-.1 1.1-1s.4-1.4.9-1.1c.5.3 3-.6 5.7-1.9 2.7-1.4 5.5-2.5 6.2-2.5.6 0 1.2-.5 1.2-1 0-.6.9-1 1.9-1 1.1 0 2.2-.4 2.5-.9.3-.4 3.5-1.1 7-1.3 4.5-.4 7.3-1.2 9.2-2.7 1.5-1.1 3.1-2.1 3.6-2.1.6 0 2.7-1.4 4.8-3 2.1-1.7 4.3-3 4.9-3 .6 0 2.9-1.8 5.2-3.9 3.7-3.7 4-4.3 3.3-7.8-.7-4.2-2-6.3-3.8-6.3-.6 0-3.8 2-7.1 4.5S81.2 96 80.7 96c-.4 0-2.6 1.2-5 2.7-2.3 1.4-5.4 2.7-7 2.9-1.5.1-3.3.7-4 1.3-1.3 1-2.9.8-15.2-1.6-3.6-.7-4-1.1-4-3.8 0-2.7.5-3 7.5-5.5 7.2-2.5 14.3-4.7 18.5-5.6 1.1-.2 3.4-.6 5-1 1.7-.3 4.4-1.2 6.2-2 1.7-.8 3.6-1.4 4.2-1.4.7 0 2.3-.7 3.7-1.7 1.4-.9 4-1.6 5.7-1.5 2.6.1 3.2-.3 3.4-2.1.1-1.2.3-3.9.4-5.9.3-3.4.6-3.7 3.9-4.3 2-.3 4.9-.1 6.5.5 1.8.7 3.2.7 3.8.1.5-.5 2.3-.7 3.8-.4 2.2.4 3.3-.1 5.4-2.3 2.2-2.4 2.9-2.6 5.3-1.8 1.8.6 3.1 2.1 3.8 4.4.7 2 1.8 3.5 2.7 3.5.9 0 1.9.4 2.3.8.4.4 3.6.7 7.1.7 3.5 0 6.3.4 6.3 1 0 .5.9 1 2 1s2 .3 2 .8c0 1 6.6 3.3 11.3 3.9 2 .3 3.7.8 3.7 1.2 0 .4 1.8 2.7 4 5.1 2.2 2.4 4 5.2 4 6.2s.5 1.8 1 1.8c.6 0 1 .9 1 1.9 0 1.1.5 2.3 1 2.6.6.3 1 1.7 1 3.1 0 1.3.8 2.9 1.9 3.5 1 .7 1.6 2 1.4 2.9-.3 1.1.3 1.9 1.6 2.3 1.2.3 2.1 1.3 2.1 2.4.1 4.6 6.8 8.5 11 6.3 1.8-1 2.5-.7 5.2 1.9 1.7 1.6 3.7 2.7 4.4 2.4 1-.4 1.2 0 .8 1.1-.4.9-.1 1.6.6 1.6s2 1.1 3.1 2.4c1 1.3 3.2 2.9 4.9 3.6 1.7.7 2.9 1.8 2.6 2.5-.2.7 0 1.7.6 2.3.8.8.4 1.4-1.3 2.1-1.3.5-4.5 2.9-7.1 5.4-3.7 3.4-4.8 5.1-4.8 7.5 0 4.1 2.4 6.6 5.1 5.1 1.1-.5 2.7-.9 3.7-.8.9.1 2.4 0 3.2-.4 3.7-1.3 6-1.4 7-.1 1.6 1.8.6 3.1-4.5 5.4-2.4 1.1-4.6 2.4-5 2.9-.3.5-2 .7-3.8.4-1.7-.2-3.6-.4-4.2-.4-.5.1-2.2.2-3.7.4-3 .2-5 1.7-2.3 1.7 1.4 0 1.5.3.5 1.5-.7.8-1.7 1.2-2.4.8-.6-.4-1.9-.6-2.9-.5-1 .2-3.2-.1-5-.7-6.5-2.1-12-2.1-14.4.2-1.6 1.4-2.1 2.7-1.7 4.4.5 1.7.2 2.3-1 2.3-1 0-1.3-.5-.9-1.6.5-1.4.3-1.5-1.2-.6-1.4.7-2.2.6-3.3-.4-1.5-1.5-3.2-1.9-3.2-.6 0 .4-1.9.9-4.2 1.1-2.3.1-4.6.7-5 1.4-.6.9-.8.9-.8-.1 0-.7-.4-1-1-.7-.5.3-1 0-1-.8s-.7-2-1.5-2.7c-1.2-1-1.5-1-1.5 0 0 .9-.4.9-1.2.2-1.5-1.1-4.2 1-3 2.4.4.4.1.4-.5 0-.8-.4-1.7.2-2.4 1.7-1.1 2.4-4.9 3.7-11.6 4.2-2.4.1-5.7 2.5-3.5 2.5.6 0 1.6 1 2.3 2.1.8 1.7.8 2.3-.2 3-1 .6-1 1.1-.1 2.2 1 1.2.9 1.8-.5 3.2-1.6 1.7-1.6 1.7.5 1.1 3.5-1.1 2.6.9-1 2.2-1.8.7-4.8 2.6-6.7 4.2-1.8 1.7-3.5 3-3.7 3-1.1 0-.1-2.1 2.6-5.5 4-5.1 3.8-7.5-.7-8.9-1.9-.6-2.8.1-5.8 4.8-1.9 3.1-4.5 6-5.6 6.6-1.1.7-1.8 1.8-1.5 2.5.2.7-.2 1.6-1.1 1.9-1.2.5-1.4.1-1-1.4.4-1.7 0-2-2.3-2-1.6 0-3.3.6-3.7 1.4-.4.7-1.8 1.7-3 2-2.3.7-2.9-.4-2.4-4.2.1-.8-.6-2.3-1.5-3.3-1.9-2.1-2.2-3.1-3.1-8.8-.4-2.2-.1-3.6.8-4.1 1-.7 1-1.4.1-3.4-1-2.3-1.4-2.5-3.6-1.5-1.8.8-2.7 2.3-3.1 5-.4 2.1-.4 4.2-.2 4.6.3.5.8 4.4 1.2 8.8.4 4.4 1.1 9.8 1.5 12 .5 2.2 1.4 6.2 2 9 .6 2.7 1.2 6.1 1.4 7.5.4 3.4 1.7 7 2.5 7 .3 0 1.7.3 3 .7 1.7.4 2.2.3 1.7-.6-.8-1.3 1-4.1 2.6-4.1.6 0 .7.7.4 1.6-1 2.5 5.7 11.9 7.9 11.1.5-.3 1.1.8 1.2 2.3.2 2.4 2 5 7.1 10.2.4.4 2.2 2 3.9 3.4 1.8 1.4 3.3 3.2 3.3 4 0 .7 1.5 2.1 3.3 3 4.1 2.1 13.6 11.2 14.8 14.2l.9 2.4 21.3-.4c21.1-.4 25.3-1 24-3.2-.3-.6-.3-.8.1-.4 1.8 1.5 19.8-10.2 20.2-13.1.1-.8 4.1-8.9 5.9-12.1.8-1.4 1.9-2.6 2.5-2.6.5-.1 1.9-.2 3-.3 1.1 0 2-.7 2-1.4 0-.6 1.7-3.1 3.8-5.3 8.1-9 8.7-10.2 8.7-15.4 0-2.8-.3-5-.7-5-.5 0-.8-.6-.8-1.4 0-3.5-6.3-5.2-11.6-3.2-.7.3-1.8-.1-2.4-.9-.7-.9-2-1.1-3.8-.6-3.2.9-5.2.4-5.2-1.3 0-.7 1.3-1 3.8-.8 2.8.3 4.2-.1 5.6-1.7 1.1-1.2 2.7-2.1 3.7-2.1s2.1-.5 2.4-1c.4-.6 1-.8 1.4-.5.5.2 1.9-.9 3.1-2.5 1.3-1.7 2.8-3 3.4-3 1.8-.1 6.3-8.2 7.6-13.9 1.1-4.7 1.1-5.6-.2-6.5-.8-.6-1.8-2.2-2.2-3.4-.5-1.3-2.3-3.9-4.2-5.9-3.5-3.6-4.4-6.3-2.1-6.3 1.5 0 4.7-5.1 4.7-7.4 0-.9.5-1.6 1-1.6 2.4 0 4-7.8 1.9-9-.4-.3-1-3.4-1.2-6.8-.3-5.8-.6-6.6-4.8-11-2.4-2.6-6.5-5.8-9.2-7.1-2.6-1.2-4.5-2.6-4.2-3.1.7-1.2-2-3.7-7.7-7.2-2.6-1.6-4.8-3.5-4.8-4.2 0-1.6-3.4-4.8-4.7-4.4-.5.2-2.4-1.4-4.2-3.4-2.1-2.4-4.5-4-6.7-4.4-1.9-.3-3.4-1-3.4-1.6 0-.5-1.5-1.5-3.2-2.3-3.8-1.7-6.8-3.9-6.8-4.9 0-.5-.9-1.5-1.9-2.4-2-1.8-3.7-7.2-2.3-7.2.4 0 1.4.6 2.1 1.2 1 1.1 1.2.8.9-1.5-.7-4.8-7.6-7.5-15.1-5.8-3.4.8-3.9.7-5.8-2-1.1-1.6-2.6-2.9-3.3-2.9-.8 0-1.9-.7-2.6-1.5-.8-1-2.7-1.4-5.3-1.3-4.1.3-4.1.3-7.4-6.1-1.9-3.6-4.5-7.5-5.9-8.8-1.4-1.3-2.3-3-2-3.8.2-.7-1-3-2.9-5.1-2.7-3-3.3-4.2-2.8-6.5.4-2.2.2-2.9-1-2.9-.8 0-3.9-2.2-6.9-4.8-2.9-2.7-7-5.7-9-6.7-2.1-.9-3.8-2.1-3.8-2.7 0-.5-1.5-.6-3.5-.2-2.3.4-3.5.2-3.5-.5 0-.6-1.2-1-2.7-.9-1.6.1-5.6.3-8.9.5zm20.9 12.9c1 1.3 2.7 2.4 3.6 2.4 1.4 0 1.7.6 1.5 2.7-.2 1.6-.1 2.2.2 1.5.8-1.7 2.5-1.5 1.8.3-.4.8-1.5 1.5-2.5 1.5s-1.9-.7-1.9-1.5-.4-1.5-1-1.5c-.5 0-1 .6-1 1.2 0 .7-1.3-.2-2.9-2-1.7-1.8-3.6-3-4.4-2.6-1 .3-1.6-.3-1.9-2-.3-1.4-.3-2.8 0-3 1.1-1.2 6.9.9 8.5 3zM68.5 36c.4.6-.8 1-3 1s-3.4-.4-3-1c.3-.6 1.7-1 3-1s2.7.4 3 1zm52.5 6.9c0 .5-.9.7-2 .4-1.1-.3-2-.7-2-.9 0-.2.9-.4 2-.4s2 .4 2 .9zm-55.3 2.7c-.3.3-1.2.4-1.9.1-.8-.3-.5-.6.6-.6 1.1-.1 1.7.2 1.3.5zm5 0c-.3.3-1.2.4-1.9.1-.8-.3-.5-.6.6-.6 1.1-.1 1.7.2 1.3.5zm3.5 14.5c4.1.9 6.2 2.1 9.6 5.4C88.2 70 89 72 86.4 72c-.8 0-2.5.5-3.7 1.2-1.2.7-2.6 1.3-3.2 1.4-.5.2-4 .9-7.6 1.7-3.6.8-7.4 1.9-8.5 2.5-1 .5-4.8 1.3-8.4 1.6-3.6.4-9.4 1.5-13 2.5l-6.6 1.7 1.1-4.3c1-4 3.4-7.1 10.2-13.4 7.4-7 16.2-9.2 27.5-6.8zM98 62c.4 0 1 .9 1.3 2 .7 2.9-1.4 2.4-3.7-.7-1.8-2.4-1.8-2.6-.2-2 1 .4 2.1.7 2.6.7zm129 83c0 1.5-.7 2-2.5 2-2.9 0-3.2-.8-.7-2.6 2.4-1.9 3.2-1.7 3.2.6zm-44.7 33.5c-.4.5-.3.7.2.3.4-.4 1.6-.1 2.7.6 1.3.9 3 1.2 4.6.7 3.7-.9 9.4.1 10 1.8.3 1 0 1.2-1.3.7-1-.4-2.1-.3-2.4.2-.7 1.2-15 2.2-15.6 1.2-.3-.4.5-1.1 1.8-1.4 2.1-.7 2.1-.7.2-1.6-2.9-1.2-3.5-1.2-3.5.4 0 .9-.8 1.2-2.5.8-2.4-.4-3.6-2.2-1.5-2.2.6 0 1-.6 1-1.4 0-.7 1-2 2.2-2.8 2-1.4 2.4-1.4 3.5.1.6.9.9 2 .6 2.6zm50.2-.4c0 2-4.1 2.3-4.9.4-.3-.9-.4-2.1-.1-2.5.8-1.3 5 .5 5 2.1zm1.5 6.9c0 1.1-.4 2-.9 2s-.7-.9-.4-2c.3-1.1.7-2 .9-2 .2 0 .4.9.4 2zm-58.4 5.5c3.2.4 6.7 1.2 7.7 1.7 1.1.5 1.7.5 1.7-.2 0-.5 1.1-1 2.5-1 1.5 0 2.5.6 2.5 1.4 0 .7-1.1 2.1-2.5 3-1.4.9-2.5 2.3-2.5 3.2 0 .8-.7 1.7-1.6 2.1-.8.3-1.3 1.2-1 1.9.3.8-.1 1.4-1 1.4-.8 0-3.6 2.2-6.2 4.8-2.6 2.6-6.3 5.6-8.2 6.6-6.5 3.3-8.5 4.5-9.5 5.9-.5.8-2 1.7-3.3 2.1-1.2.4-2.2 1.2-2.2 1.7s-.7.9-1.5.9c-.9 0-2.5.9-3.7 2-1.2 1.1-3.2 2-4.4 2-1.3 0-2.6.4-2.9 1-.3.5-1.5 1-2.7 1-1.1 0-3.6.7-5.5 1.7-3.6 1.7-8.7 1-8.9-1.2-.1-1.2-1.3-4.5-2.3-6.5-.4-.8-1.9-1.7-3.2-2-3-.7-3.6-3.8-1.5-7.9.9-1.6 1.6-3.9 1.6-5.1 0-1.9.1-2 3.6-.5 4.3 1.8 7.9.5 6.9-2.4-.4-1.4.1-2 2.2-2.6 1.5-.3 4.6-1.9 7-3.5 2.4-1.6 6.2-3.4 8.5-4 2.7-.7 5.3-2.3 7-4.3 2.3-2.8 3.5-3.3 9-3.8 3.5-.3 6.8-.5 7.4-.3.6.1 3.7.5 7 .9zm-73.3 13.2c.3.5.1 1.8-.4 3.1-.7 1.9-1.1 2.1-2.2 1-1.6-1.5-1-4.8.9-4.8.7 0 1.5.3 1.7.7zm3.2 7.5c.5-.4.5-.2.2.5-.4.6-.1 1.3.5 1.6 1 .4 1 .7 0 1.8-1.1 1.2-1.4 1.2-2.2-.1-.5-.8-.6-1.8-.4-2.2.3-.4 0-.8-.5-.8-.6 0-1.1-.5-1.1-1.1 0-.8.4-.9 1.3 0 .8.6 1.8.7 2.2.3zm79 18.3c.6 1.1 1.9 2 3 2s2.6.6 3.3 1.2c1.6 1.5 6.2 1.7 6.2.3 0-.6.7-1 1.6-1 1.1 0 1.5.8 1.2 2.9-.2 2.1.4 3.5 2 4.9 1.2 1.1 2.2 3.1 2.2 4.6 0 2.3.9 3.1 3.3 2.7.4 0 .7.4.7.9 0 1.2-5 5.9-6.2 6-.4 0-2.8 2-5.4 4.5-2.5 2.5-5.2 4.5-6 4.5-.8 0-1.4.4-1.4 1 0 .5-.7 1-1.6 1-.8 0-1.3.4-1 .8.3.5-.9.6-2.6.4-1.6-.3-3.3-.1-3.7.4-1.1 1.6-7.5 3.6-14.5 4.6-6.1.9-7.1.8-8.2-.7-2.8-3.7-15.9-17-16.6-16.7-.4.1-.8-.5-.8-1.3s-.9-2-2-2.7c-3-1.9-2.4-3.4 2.3-5.6 12.5-5.9 15.5-7.2 17-7.2 1 0 1.7-.4 1.7-1 0-.5 2-1.9 4.5-3.1 2.5-1.2 5.4-3.2 6.4-4.5 1-1.3 2.3-2.4 2.9-2.4.5 0 2.2-.6 3.7-1.4 2.4-1.3 2.9-1.2 4.8.7 1.2 1.2 2.7 3.1 3.2 4.2z"/><path d="M54.8 30.7c.7.3 1.6.2 1.9-.1.4-.3-.2-.6-1.3-.5-1.1 0-1.4.3-.6.6zM136 100.8c0 .4.5 1.3 1.2 2 .9.9.6 1.2-1.5 1.2-1.5 0-2.7.4-2.7 1 0 .5-.5 1-1.1 1-.7 0-2.1 1-3.3 2.2-1.2 1.3-3.1 3-4.4 3.8-2 1.3-2.4 2.5-2.8 9.7-.5 7.7-.4 8.3 1.4 8.3 2.1 0 7.2-5.9 7.2-8.4 0-.9.6-1.6 1.3-1.6.8 0 .7-.3-.3-1-1.2-.8-1.2-1 .3-1.6.9-.3 3.3-.4 5.2-.2 2.5.3 3.5 0 3.5-1 0-.7.5-1 1-.7.6.4 1.6.2 2.3-.3.7-.5 4.7-1.5 8.9-2.2 8.3-1.4 9.4-2.1 10.8-6.8.6-2.4.4-3.4-1-4.7-1.7-1.5-3.1-1.6-12.2-.7-6.3.6-11 .6-12 .1-1-.6-1.8-.6-1.8-.1zM158 169c0 .5.5 1 1 1 .6 0 1-.5 1-1 0-.6-.4-1-1-1-.5 0-1 .4-1 1zM128.5 180c1 1.6 4.5 3.2 4.5 2 0-.5-.7-1-1.5-1s-1.5-.5-1.5-1c0-.6-.5-1-1.1-1-.5 0-.7.4-.4 1zM99 196.1c0 .5.5.7 1 .4.6-.3 1-.8 1-1.1 0-.2-.4-.4-1-.4-.5 0-1 .5-1 1.1zM58 256.1c-1 .7-1.1 1.2-.4 1.5.7.3 1 1.3.7 2.3-.2.9.3 2.3 1.1 3 .9.8 1.6 1.9 1.6 2.7 0 .7 1 1.6 2.1 1.9 1.7.6 1.9.9.8 1.7-1.4 1-.2.7 3.6-.8 1-.4 1.5 0 1.5 1 0 .9.5 1.6 1 1.6.6 0 1-.7 1-1.6 0-3.7 7.1 1.3 9.1 6.4.7 1.8 1.6 2.2 5.4 2.2 4.1 0 4.5-.2 4.5-2.4 0-1.3-.6-2.9-1.4-3.5-.8-.7-2.1-2.7-3-4.5-1-2.2-2.6-3.6-4.3-4.1-1.5-.3-3.9-1.5-5.4-2.6-1.5-1-3.2-1.9-3.8-1.9-.6 0-1.1-.5-1.1-1 0-.6-.9-1-1.9-1-1.1 0-2.3-.5-2.6-1-.8-1.3-6.6-1.3-8.5.1zM60 272.5c0 .9.9 1.5 2.1 1.5 1.8 0 1.9-.2.5-1.5-.8-.8-1.7-1.5-2-1.5-.3 0-.6.7-.6 1.5zM57.3 275.5c-1 .7-3 1.5-4.3 1.8-1.4.2 1.6.5 6.5.5 5 0 8.3-.2 7.5-.5-.8-.3-2.9-1.1-4.7-1.8-2.5-1.1-3.5-1.1-5 0z"/></svg>